<svg width="139" height="73" viewBox="0 0 139 73" fill="none" xmlns="http://www.w3.org/2000/svg">
<g clip-path="url(#clip0)">
<path d="M80.2812 57.7812H79.5625V54.9062C79.5621 54.5251 79.4105 54.1597 79.141 53.8903C78.8715 53.6208 78.5061 53.4692 78.125 53.4688H76.6875V52.75C76.6871 52.3689 76.5355 52.0035 76.266 51.734C75.9965 51.4645 75.6311 51.3129 75.25 51.3125H73.0938C72.7126 51.3129 72.3472 51.4645 72.0778 51.734C71.8083 52.0035 71.6567 52.3689 71.6562 52.75V57.7812H67.3438V52.75C67.3433 52.3689 67.1917 52.0035 66.9222 51.734C66.6528 51.4645 66.2874 51.3129 65.9062 51.3125H63.75C63.3689 51.3129 63.0035 51.4645 62.734 51.734C62.4645 52.0035 62.3129 52.3689 62.3125 52.75V53.4688H60.875C60.4939 53.4692 60.1285 53.6208 59.859 53.8903C59.5895 54.1597 59.4379 54.5251 59.4375 54.9062V57.7812H58.7188C58.5281 57.7812 58.3453 57.857 58.2105 57.9918C58.0757 58.1266 58 58.3094 58 58.5C58 58.6906 58.0757 58.8734 58.2105 59.0082C58.3453 59.143 58.5281 59.2188 58.7188 59.2188H59.4375V62.0938C59.4379 62.4749 59.5895 62.8403 59.859 63.1097C60.1285 63.3792 60.4939 63.5308 60.875 63.5312H62.3125V64.25C62.3129 64.6311 62.4645 64.9965 62.734 65.266C63.0035 65.5355 63.3689 65.6871 63.75 65.6875H65.9062C66.2874 65.6871 66.6528 65.5355 66.9222 65.266C67.1917 64.9965 67.3433 64.6311 67.3438 64.25V59.2188H71.6562V64.25C71.6567 64.6311 71.8083 64.9965 72.0778 65.266C72.3472 65.5355 72.7126 65.6871 73.0938 65.6875H75.25C75.6311 65.6871 75.9965 65.5355 76.266 65.266C76.5355 64.9965 76.6871 64.6311 76.6875 64.25V63.5312H78.125C78.5061 63.5308 78.8715 63.3792 79.141 63.1097C79.4105 62.8403 79.5621 62.4749 79.5625 62.0938V59.2188H80.2812C80.4719 59.2188 80.6547 59.143 80.7895 59.0082C80.9243 58.8734 81 58.6906 81 58.5C81 58.3094 80.9243 58.1266 80.7895 57.9918C80.6547 57.857 80.4719 57.7812 80.2812 57.7812ZM60.875 62.0938V54.9062H62.3125V62.0938H60.875ZM65.9062 64.25H63.75V52.75H65.9062L65.9067 58.491C65.9067 58.4941 65.9062 58.4969 65.9062 58.5C65.9062 58.5031 65.9067 58.5059 65.9067 58.509L65.9071 64.25H65.9062ZM75.25 64.25H73.0938V52.75H75.25L75.2501 54.1853L75.25 54.1875L75.2501 54.1897L75.2508 62.7968C75.2507 62.8021 75.25 62.8072 75.25 62.8125C75.25 62.8179 75.2507 62.823 75.2508 62.8283L75.2509 64.25H75.25ZM78.125 62.0938H76.6875V54.9062H78.125V62.0938Z" fill="#3A3A3A"/>
</g>
<g clip-path="url(#clip1)">
<path d="M128.125 57.5H122C120.55 57.5 119.375 56.3214 119.375 54.8776V52.2474C119.376 51.5518 119.653 50.885 120.145 50.3934C120.637 49.9018 121.304 49.6255 122 49.625H128.125V57.5ZM122.875 52.25H128.125H122.875ZM122.875 54.875H128.125H122.875ZM119.375 52.25H110.184C109.461 52.25 108.875 52.8328 108.875 53.5625C108.875 54.287 109.47 54.875 110.184 54.875H119.375V52.25ZM113.25 60.125H110.188C109.463 60.125 108.875 60.7078 108.875 61.4375C108.875 62.162 109.46 62.75 110.192 62.75H115.875C115.875 62.75 115.875 65.375 118.5 65.375H122.875C125.5 65.375 127.25 63.625 127.25 60.125H113.25Z" stroke="#3A3A3A" stroke-width="2"/>
</g>
<path d="M21 46.75C22.4774 46.75 23.9403 47.041 25.3052 47.6064C26.6701 48.1717 27.9103 49.0004 28.955 50.045C29.9996 51.0897 30.8283 52.3299 31.3936 53.6948C31.959 55.0597 32.25 56.5226 32.25 58C32.25 59.4774 31.959 60.9403 31.3936 62.3052C30.8283 63.6701 29.9996 64.9103 28.955 65.955C27.9103 66.9996 26.6701 67.8283 25.3052 68.3936C23.9403 68.959 22.4774 69.25 21 69.25C18.0163 69.25 15.1548 68.0647 13.045 65.955C10.9353 63.8452 9.75 60.9837 9.75 58C9.75 55.0163 10.9353 52.1548 13.045 50.045C15.1548 47.9353 18.0163 46.75 21 46.75V46.75Z" stroke="#3A3A3A" stroke-width="2" stroke-linecap="round"/>
<path d="M16 60.5C16.625 62.375 18.2375 64.25 21 64.25C23.7625 64.25 25.375 62.375 26 60.5" stroke="#3A3A3A" stroke-width="2" stroke-linecap="round"/>
<path d="M17.25 56.75C17.9404 56.75 18.5 55.9105 18.5 54.875C18.5 53.8395 17.9404 53 17.25 53C16.5596 53 16 53.8395 16 54.875C16 55.9105 16.5596 56.75 17.25 56.75Z" fill="#3A3A3A"/>
<path d="M24.75 56.75C25.4404 56.75 26 55.9105 26 54.875C26 53.8395 25.4404 53 24.75 53C24.0596 53 23.5 53.8395 23.5 54.875C23.5 55.9105 24.0596 56.75 24.75 56.75Z" fill="#3A3A3A"/>
<circle cx="20.5" cy="20.5" r="20.5" fill="#A9ACAD"/>
<path d="M13.711 13.35V14.325C13.711 15.911 13.412 17.367 12.814 18.693C12.229 20.006 11.371 21.007 10.24 21.696V27H8.407V21.735C7.276 21.059 6.405 20.0775 5.794 18.7905C5.183 17.4905 4.8775 16.0605 4.8775 14.5005V13.35H6.7495V14.325C6.7495 15.664 6.938 16.8145 7.315 17.7765C7.705 18.7255 8.3745 19.5055 9.3235 20.1165C11.0265 18.9855 11.878 17.055 11.878 14.325V13.35H13.711ZM16.8304 18.8685C17.7404 17.9195 18.8779 17.445 20.2429 17.445C20.9059 17.445 21.5234 17.575 22.0954 17.835C22.6804 18.082 23.1874 18.4265 23.6164 18.8685C24.0584 19.3105 24.4029 19.8305 24.6499 20.4285C24.8969 21.0135 25.0204 21.644 25.0204 22.32C25.0204 22.996 24.8969 23.633 24.6499 24.231C24.4159 24.816 24.0844 25.3295 23.6554 25.7715C23.2264 26.2135 22.7194 26.5645 22.1344 26.8245C21.5494 27.0715 20.9189 27.195 20.2429 27.195C19.5539 27.195 18.9169 27.0715 18.3319 26.8245C17.7599 26.5645 17.2594 26.2135 16.8304 25.7715C16.4014 25.3295 16.0634 24.816 15.8164 24.231C15.5824 23.633 15.4654 22.996 15.4654 22.32C15.4654 20.942 15.9204 19.7915 16.8304 18.8685ZM20.2429 19.083C19.3329 19.083 18.5984 19.382 18.0394 19.98C17.4934 20.578 17.2204 21.358 17.2204 22.32C17.2204 23.282 17.4934 24.062 18.0394 24.66C18.5984 25.258 19.3329 25.557 20.2429 25.557C21.1659 25.557 21.9004 25.258 22.4464 24.66C22.9924 24.049 23.2654 23.269 23.2654 22.32C23.2654 21.371 22.9924 20.5975 22.4464 19.9995C21.9004 19.3885 21.1659 19.083 20.2429 19.083ZM34.8304 27H31.4569C30.0139 27 28.9804 26.7855 28.3564 26.3565C27.7974 25.9795 27.4399 25.531 27.2839 25.011C27.1409 24.478 27.0694 23.7825 27.0694 22.9245V17.64H28.7854V22.905C28.7854 23.139 28.7919 23.3405 28.8049 23.5095C28.8179 23.6655 28.8634 23.8735 28.9414 24.1335C29.0194 24.3805 29.1299 24.5885 29.2729 24.7575C29.4159 24.9135 29.6239 25.0565 29.8969 25.1865C30.1699 25.3035 30.5014 25.362 30.8914 25.362H33.1144V17.64H34.8304V27Z" fill="white"/>
<circle cx="69.5" cy="20.5" r="20.5" fill="#F276A5"/>
<path d="M62.081 27H60.2675V17.6985C60.2675 16.3595 60.6965 15.2675 61.5545 14.4225C62.4255 13.5775 63.498 13.155 64.772 13.155C66.176 13.155 67.229 13.5125 67.931 14.2275C68.646 14.9295 69.0035 15.794 69.0035 16.821C69.0035 18.134 68.3925 19.0765 67.1705 19.6485V19.7265C68.8475 20.2075 69.686 21.371 69.686 23.217C69.686 25.739 68.1975 27 65.2205 27H62.783V25.284H65.201C66.098 25.284 66.7545 25.102 67.1705 24.738C67.5865 24.374 67.7945 23.789 67.7945 22.983C67.7945 22.281 67.567 21.7415 67.112 21.3645C66.67 20.9875 66.0655 20.799 65.2985 20.799H63.368V19.1805H64.616C65.318 19.1805 65.916 18.992 66.41 18.615C66.917 18.225 67.1705 17.705 67.1705 17.055C67.1705 16.431 66.9755 15.911 66.5855 15.495C66.2085 15.079 65.591 14.871 64.733 14.871C63.953 14.871 63.316 15.118 62.822 15.612C62.328 16.093 62.081 16.8015 62.081 17.7375V27ZM76.3116 17.445C78.5216 17.536 79.6266 18.4525 79.6266 20.1945C79.6266 22.3655 78.2031 23.451 75.3561 23.451H74.5566V21.9495H75.4926C76.3636 21.9495 76.9681 21.8195 77.3061 21.5595C77.6441 21.2865 77.8131 20.838 77.8131 20.214C77.8131 19.811 77.6636 19.512 77.3646 19.317C77.0656 19.109 76.6821 19.005 76.2141 19.005C75.2911 19.005 74.5631 19.33 74.0301 19.98C73.5101 20.63 73.2501 21.41 73.2501 22.32C73.2501 23.282 73.5296 24.062 74.0886 24.66C74.6606 25.258 75.4016 25.557 76.3116 25.557C77.1306 25.557 77.8001 25.3555 78.3201 24.9525L79.4901 26.103C78.5931 26.831 77.5336 27.195 76.3116 27.195C74.8296 27.195 73.6466 26.7595 72.7626 25.8885C71.8786 25.0175 71.4366 23.893 71.4366 22.515C71.4366 20.981 71.8721 19.7395 72.7431 18.7905C73.6141 17.8415 74.8036 17.393 76.3116 17.445Z" fill="white"/>
<circle cx="118.5" cy="20.5" r="20.5" fill="#F4D96F"/>
<path d="M111.101 16.86V19.473H114.728V21.189H111.101V27H109.268V16.6065C109.268 15.6445 109.573 14.871 110.184 14.286C110.6 13.896 111.068 13.6425 111.588 13.5255C112.108 13.4085 112.745 13.35 113.499 13.35H115.566V15.066H113.246C111.816 15.066 111.101 15.664 111.101 16.86ZM119.665 27H117.949V19.278H116.35L117.13 17.64H119.665V27ZM117.871 15.69C117.702 15.469 117.617 15.2285 117.617 14.9685C117.617 14.7085 117.702 14.4745 117.871 14.2665C118.04 14.0455 118.3 13.935 118.651 13.935C119.002 13.935 119.262 14.0455 119.431 14.2665C119.6 14.4745 119.684 14.7085 119.684 14.9685C119.684 15.2285 119.6 15.469 119.431 15.69C119.262 15.898 119.002 16.002 118.651 16.002C118.3 16.002 118.04 15.898 117.871 15.69ZM121.297 19.278L124.787 15.7875V17.64H127.42V19.278H124.787V23.295C124.787 23.75 124.859 24.127 125.002 24.426C125.158 24.725 125.379 24.9395 125.665 25.0695C125.951 25.1865 126.217 25.2645 126.464 25.3035C126.724 25.3425 127.043 25.362 127.42 25.362V27C125.925 27 124.82 26.714 124.105 26.142C123.39 25.57 123.032 24.621 123.032 23.295V19.278H121.297Z" fill="white"/>
<defs>
<clipPath id="clip0">
<rect width="23" height="23" fill="white" transform="translate(58 47)"/>
</clipPath>
<clipPath id="clip1">
<rect width="21" height="21" fill="white" transform="translate(129 47) rotate(90)"/>
</clipPath>
</defs>
</svg>
