<svg width="31" height="30" viewBox="0 0 31 30" fill="none" xmlns="http://www.w3.org/2000/svg">
<path d="M15.4838 0C7.19943 0 0.483765 6.71566 0.483765 15C0.483765 23.2843 7.19943 30 15.4838 30C23.7681 30 30.4838 23.2843 30.4838 15C30.4838 6.71566 23.7681 0 15.4838 0Z" fill="#40B3E0"/>
<path d="M22.7826 8.62853L20.1033 22.1366C20.1033 22.1366 19.7287 23.0734 18.6982 22.6238L12.5157 17.8838L10.2675 16.7972L6.48309 15.5231C6.48309 15.5231 5.90231 15.3171 5.84606 14.8675C5.78981 14.4178 6.50184 14.1743 6.50184 14.1743L21.5459 8.27275C21.5459 8.27275 22.7825 7.72947 22.7825 8.62877" fill="white"/>
<path d="M12.0406 21.9847C12.0406 21.9847 11.8602 21.9678 11.6352 21.2558C11.4105 20.5439 10.2676 16.7969 10.2676 16.7969L19.3541 11.0266C19.3541 11.0266 19.8787 10.7081 19.86 11.0266C19.86 11.0266 19.9536 11.0829 19.6725 11.3451C19.3916 11.6075 12.5346 17.7712 12.5346 17.7712" fill="#D2E5F1"/>
<path d="M14.8862 19.701L12.4408 21.9306C12.4408 21.9306 12.2496 22.0757 12.0405 21.9847L12.5088 17.8433" fill="#B5CFE4"/>
</svg>
